<svg id="Layer_1" data-name="Layer 1" xmlns="http://www.w3.org/2000/svg" xmlns:xlink="http://www.w3.org/1999/xlink" viewBox="0 0 692.27 149"><defs><style>.cls-1{fill:#fed600;}.cls-2{clip-path:url(#clip-path);}.cls-3{fill:url(#linear-gradient);}.cls-4{fill:url(#linear-gradient-2);}.cls-5{fill:url(#linear-gradient-3);}.cls-6{fill:url(#radial-gradient);}.cls-7,.cls-8{fill:#424143;}.cls-8{fill-rule:evenodd;}</style><clipPath id="clip-path" transform="translate(-67.73 -44.85)"><path class="cls-1" d="M116.28,81.34a5.58,5.58,0,0,0,5.6,5.58L232,86.43a6.63,6.63,0,0,1,6.1,9.23l-27.07,63.52H197.83a17.36,17.36,0,0,1,16,10.67h4.28l29.83-70a17.27,17.27,0,0,0-2.8-18.07,17.73,17.73,0,0,0-13.48-6H121.86a5.58,5.58,0,0,0-5.58,5.58Z"/></clipPath><linearGradient id="linear-gradient" x1="203.36" y1="169.95" x2="220.26" y2="150.86" gradientUnits="userSpaceOnUse"><stop offset="0" stop-color="#231f20"/><stop offset="0.08" stop-color="#231f20" stop-opacity="0.66"/><stop offset="0.21" stop-color="#231f20" stop-opacity="0.28"/><stop offset="0.39" stop-color="#231f20" stop-opacity="0.06"/><stop offset="0.73" stop-color="#231f20" stop-opacity="0"/></linearGradient><linearGradient id="linear-gradient-2" x1="139.15" y1="163.99" x2="138.83" y2="186.84" gradientUnits="userSpaceOnUse"><stop offset="0.04" stop-color="#231f20"/><stop offset="0.14" stop-color="#231f20" stop-opacity="0.58"/><stop offset="0.27" stop-color="#231f20" stop-opacity="0.25"/><stop offset="0.47" stop-color="#231f20" stop-opacity="0.05"/><stop offset="1" stop-color="#231f20" stop-opacity="0"/></linearGradient><linearGradient id="linear-gradient-3" x1="187.24" y1="165.98" x2="190.84" y2="181.28" gradientUnits="userSpaceOnUse"><stop offset="0" stop-color="#231f20"/><stop offset="0.1" stop-color="#231f20" stop-opacity="0.58"/><stop offset="0.24" stop-color="#231f20" stop-opacity="0.25"/><stop offset="0.44" stop-color="#231f20" stop-opacity="0.05"/><stop offset="1" stop-color="#231f20" stop-opacity="0"/></linearGradient><radialGradient id="radial-gradient" cx="147.11" cy="176.48" r="33.54" gradientUnits="userSpaceOnUse"><stop offset="0.08" stop-color="#231f20"/><stop offset="0.17" stop-color="#231f20" stop-opacity="0.73"/><stop offset="0.37" stop-color="#231f20" stop-opacity="0.32"/><stop offset="0.61" stop-color="#231f20" stop-opacity="0.07"/><stop offset="1" stop-color="#231f20" stop-opacity="0"/></radialGradient></defs><title>jauns-lv-veikals</title><rect class="cls-1" x="69.01" y="90.48" width="31.03" height="6.96" rx="3.48"/><rect class="cls-1" x="106.75" y="90.48" width="39.87" height="6.96" rx="3.48"/><rect class="cls-1" x="79.43" y="75.28" width="67.2" height="6.96" rx="3.48"/><rect class="cls-1" x="79.43" y="60.09" width="67.2" height="6.96" rx="3.48"/><rect class="cls-1" x="66.05" y="60.09" width="11.05" height="6.96" rx="3.48"/><path class="cls-1" d="M116.28,81.34a5.58,5.58,0,0,0,5.6,5.58L232,86.43a6.63,6.63,0,0,1,6.1,9.23l-27.07,63.52H197.83a17.36,17.36,0,0,1,16,10.67h4.28l29.83-70a17.27,17.27,0,0,0-2.8-18.07,17.73,17.73,0,0,0-13.48-6H121.86a5.58,5.58,0,0,0-5.58,5.58Z" transform="translate(-67.73 -44.85)"/><g class="cls-2"><path class="cls-3" d="M232.29,137l-14,32.82H214a17.36,17.36,0,0,0-16-10.67h13.23L220.7,137Z" transform="translate(-67.73 -44.85)"/></g><path class="cls-1" d="M197.83,159.18H147.52a17.36,17.36,0,0,1,16,10.67h34.31a6.67,6.67,0,1,1-6.66,6.66,6.67,6.67,0,0,1,6.66-6.66h-16a17.33,17.33,0,1,0,32,0A17.36,17.36,0,0,0,197.83,159.18Z" transform="translate(-67.73 -44.85)"/><path class="cls-1" d="M147.52,159.18H135.68L108.46,79.34l-7.95-22.76L75.24,45.31a5.33,5.33,0,1,0-4.34,9.74L92,64.44l6.42,18.38,29.67,87h19.47a6.67,6.67,0,1,1-6.66,6.66,6.67,6.67,0,0,1,6.66-6.66h-16a17.33,17.33,0,1,0,32,0A17.36,17.36,0,0,0,147.52,159.18Z" transform="translate(-67.73 -44.85)"/><path class="cls-4" d="M147.53,183.18v10.66a17.35,17.35,0,0,1-17.34-17.33,17.18,17.18,0,0,1,1.34-6.66h16a6.67,6.67,0,1,0,0,13.33Z" transform="translate(-67.73 -44.85)"/><path class="cls-5" d="M197.93,183.18v10.66h-.1a17.33,17.33,0,0,1-16-24h16a6.67,6.67,0,0,0,0,13.33Z" transform="translate(-67.73 -44.85)"/><path class="cls-6" d="M181.84,159.18v10.67H163.51a17.33,17.33,0,0,0-16-10.67Z" transform="translate(-67.73 -44.85)"/><path class="cls-7" d="M564.52,148.69H552.79l-.27-2.89q-3,3.55-8.64,3.56a12,12,0,0,1-6.13-1.58,9.52,9.52,0,0,1-4-4.22,12.13,12.13,0,0,1-1.24-5.13,9.12,9.12,0,0,1,1.54-5.63,9.27,9.27,0,0,1,4.7-3q3.94-1.28,13-1.61V127a4,4,0,0,0-.61-2.41c-.49-.67-1.63-1-3.41-1a45.84,45.84,0,0,0-10.93,1.82l-2-8.38a44.5,44.5,0,0,1,8.31-2.25,47.73,47.73,0,0,1,8.31-.83,23.62,23.62,0,0,1,5.6.6,9.54,9.54,0,0,1,4,1.91,9,9,0,0,1,2.35,3q1.14,2.35,1.14,8.64Zm-12.6-8.92v-4.89a24.52,24.52,0,0,0-5,.74,2.92,2.92,0,0,0-1.44,1,2.63,2.63,0,0,0-.57,1.71,2.69,2.69,0,0,0,.84,2.14,3.15,3.15,0,0,0,2.18.74A6.4,6.4,0,0,0,551.92,139.77Z" transform="translate(-67.73 -44.85)"/><path class="cls-7" d="M605.13,148.69H592.47v-3.42a16.76,16.76,0,0,1-5.4,3.35,17.49,17.49,0,0,1-6,1A15.22,15.22,0,0,1,577,149a7.91,7.91,0,0,1-3.68-2.24,6.73,6.73,0,0,1-1.81-3.92,67,67,0,0,1-.4-8.38v-19l12.8-1.6V132.8a15.8,15.8,0,0,0,.53,5.16c.49,1.08,1.59,1.61,3.29,1.61a15.83,15.83,0,0,0,4.62-.87V115.51l12.8-1.6Z" transform="translate(-67.73 -44.85)"/><path class="cls-7" d="M624.77,148.69H612V115.51l12.66-1.6v4.42a22.1,22.1,0,0,1,6-3.29,18.29,18.29,0,0,1,6.2-1.2,10,10,0,0,1,6.2,1.77,7.09,7.09,0,0,1,2.71,4.93,86,86,0,0,1,.27,8.78v19.37h-12.8V131.4q0-4.83-.47-5.9c-.45-1.07-1.47-1.61-3.08-1.61a16.42,16.42,0,0,0-4.89.87Z" transform="translate(-67.73 -44.85)"/><path class="cls-7" d="M650.43,147.61l2.28-9a59,59,0,0,0,5.8,1.48,31.6,31.6,0,0,0,6.13.53c1.79,0,2.68-.62,2.68-1.87,0-1-.6-1.68-1.81-2l-4.82-1.2q-5.18-1.27-7.21-3.92a11,11,0,0,1-2-6.87,9.44,9.44,0,0,1,.94-4.12,9.83,9.83,0,0,1,2.88-3.52,14.11,14.11,0,0,1,5.06-2.41,26.84,26.84,0,0,1,7.2-.87,46.15,46.15,0,0,1,6,.43,26.14,26.14,0,0,1,5.63,1.31l-2.48,8.64a38.71,38.71,0,0,0-10.39-1.47c-1.6,0-2.41.56-2.41,1.67a1.52,1.52,0,0,0,.47,1.21,3.29,3.29,0,0,0,1.54.6l5,1.14A13.65,13.65,0,0,1,678,131q2.31,2.44,2.31,7.07a10,10,0,0,1-1.84,6,12.38,12.38,0,0,1-5.43,4.09,23.9,23.9,0,0,1-9.15,1.5A48,48,0,0,1,650.43,147.61Z" transform="translate(-67.73 -44.85)"/><path class="cls-7" d="M698,142.59a7.19,7.19,0,0,1-1.14,4.19A5.41,5.41,0,0,1,694,149a10,10,0,0,1-3.12.54,7.09,7.09,0,0,1-3.39-.84,6.42,6.42,0,0,1-2.48-2.31,7.08,7.08,0,0,1-.9-3.75,6.74,6.74,0,0,1,2.08-5.33,7.1,7.1,0,0,1,4.89-1.84,7.18,7.18,0,0,1,4.82,1.71C697.28,138.26,698,140.09,698,142.59Z" transform="translate(-67.73 -44.85)"/><path class="cls-7" d="M716.31,148.69h-12.8V100.3l12.8-1.61Z" transform="translate(-67.73 -44.85)"/><path class="cls-7" d="M747,148.69H732.93l-13-33.85h14q3.15,9.25,6.57,21,1.88-7.24,6-21H760Z" transform="translate(-67.73 -44.85)"/><path class="cls-8" d="M514.37,168.22s12.92,0,12.92-13.47V116.48l-12.92,1.63Z" transform="translate(-67.73 -44.85)"/><path class="cls-8" d="M520.86,113.84a6.68,6.68,0,0,0,4.63-1.55,5.88,5.88,0,0,0,1.73-4.6q0-6.15-6.09-6.16a6.92,6.92,0,0,0-4.63,1.52,5.76,5.76,0,0,0-1.8,4.64,5.85,5.85,0,0,0,1.73,4.63,6.43,6.43,0,0,0,4.43,1.52" transform="translate(-67.73 -44.85)"/><path class="cls-7" d="M292.05,148.89h-14.2l-13.13-34.17h14.14q3.18,9.34,6.63,21.18,1.89-7.31,6.09-21.18h13.6Z" transform="translate(-67.73 -44.85)"/><path class="cls-7" d="M340.76,145.78a33.67,33.67,0,0,1-8,3.07,36.18,36.18,0,0,1-8.59,1,19.76,19.76,0,0,1-7.27-1.25,14,14,0,0,1-5.35-3.55,15.54,15.54,0,0,1-3.25-5.51,21.53,21.53,0,0,1-1.11-7.07,22.24,22.24,0,0,1,1.38-8.09,15.8,15.8,0,0,1,9.48-9.4,19.43,19.43,0,0,1,6.79-1.18,21.3,21.3,0,0,1,8.8,1.65,11.11,11.11,0,0,1,5.48,5.38q1.83,3.72,1.82,11a34.69,34.69,0,0,1-.2,3.72h-21l.14,1q.94,3.92,6.63,3.92a33.43,33.43,0,0,0,5.68-.54,26,26,0,0,0,5.41-1.49ZM329.4,127.71l.06-1.69c0-2.57-1.48-3.85-4.46-3.85a4.46,4.46,0,0,0-3.72,1.52,6.24,6.24,0,0,0-1.22,4Z" transform="translate(-67.73 -44.85)"/><path class="cls-7" d="M359.23,148.89H346.31V115.4l12.92-1.62ZM359.16,105a5.9,5.9,0,0,1-1.72,4.57,6.58,6.58,0,0,1-4.64,1.59,6.48,6.48,0,0,1-4.39-1.52,5.79,5.79,0,0,1-1.76-4.64,6.13,6.13,0,0,1,1.08-3.75,5.17,5.17,0,0,1,2.57-1.93,9.35,9.35,0,0,1,2.77-.47,6.38,6.38,0,0,1,4.43,1.48A6,6,0,0,1,359.16,105Z" transform="translate(-67.73 -44.85)"/><path class="cls-7" d="M378.91,148.89H366V100l12.92-1.62v25.5l8.33-9.2h15.28l-11.7,12.45,11.84,21.72H388.05l-6.29-12.18-2.85,2.77Z" transform="translate(-67.73 -44.85)"/><path class="cls-7" d="M437,148.89H425.19l-.27-2.91q-3,3.59-8.73,3.58A12.11,12.11,0,0,1,410,148a9.52,9.52,0,0,1-4-4.26,12.05,12.05,0,0,1-1.25-5.17,9.17,9.17,0,0,1,1.55-5.69,9.38,9.38,0,0,1,4.74-3q4-1.29,13.12-1.62V127a4,4,0,0,0-.61-2.44c-.49-.67-1.64-1-3.45-1a46.19,46.19,0,0,0-11,1.83l-2-8.46a45.15,45.15,0,0,1,8.39-2.27,48.57,48.57,0,0,1,8.38-.84,23.45,23.45,0,0,1,5.65.61,9.65,9.65,0,0,1,4,1.92,9.27,9.27,0,0,1,2.37,3c.76,1.58,1.15,4.49,1.15,8.73Zm-12.72-9V135a24.32,24.32,0,0,0-5.08.75,2.9,2.9,0,0,0-1.45,1,2.67,2.67,0,0,0-.58,1.72,2.76,2.76,0,0,0,.85,2.17,3.23,3.23,0,0,0,2.2.74A6.44,6.44,0,0,0,424.31,139.89Z" transform="translate(-67.73 -44.85)"/><path class="cls-7" d="M456.71,148.89H443.79V100l12.92-1.62Z" transform="translate(-67.73 -44.85)"/><path class="cls-7" d="M461.31,147.81l2.3-9.07q3.12.94,5.85,1.49a32.2,32.2,0,0,0,6.19.54c1.81,0,2.71-.63,2.71-1.9,0-1-.61-1.69-1.83-2l-4.87-1.21q-5.21-1.29-7.27-4a11,11,0,0,1-2.06-6.94,9.61,9.61,0,0,1,.94-4.16,10,10,0,0,1,2.91-3.55,14.39,14.39,0,0,1,5.11-2.43,27,27,0,0,1,7.27-.88,45.43,45.43,0,0,1,6.09.44,26,26,0,0,1,5.68,1.32l-2.5,8.72a39.07,39.07,0,0,0-10.49-1.49c-1.62,0-2.43.57-2.43,1.7a1.52,1.52,0,0,0,.47,1.21,3.37,3.37,0,0,0,1.56.61l5.07,1.15a13.8,13.8,0,0,1,7.14,3.55c1.56,1.65,2.33,4,2.33,7.14a10.17,10.17,0,0,1-1.86,6.06,12.4,12.4,0,0,1-5.48,4.12,23.89,23.89,0,0,1-9.23,1.52A48.63,48.63,0,0,1,461.31,147.81Z" transform="translate(-67.73 -44.85)"/><path class="cls-7" d="M509.28,142.73a7.28,7.28,0,0,1-1.15,4.23,5.49,5.49,0,0,1-2.81,2.2,10.22,10.22,0,0,1-3.15.54,7.07,7.07,0,0,1-3.41-.85,6.41,6.41,0,0,1-2.51-2.33,7.12,7.12,0,0,1-.91-3.79,6.82,6.82,0,0,1,2.1-5.38,7.18,7.18,0,0,1,4.94-1.86,7.29,7.29,0,0,1,4.87,1.73Q509.28,138.95,509.28,142.73Z" transform="translate(-67.73 -44.85)"/></svg>